HIERARCHY
ROOT Hips
{
	OFFSET 0.000000 0.000000 0.000000
	CHANNELS 6 Xposition Yposition Zposition Zrotation Yrotation Xrotation 
	JOINT LHipJoint
	{
		OFFSET 0.000000 0.000000 0.000000
		CHANNELS 3 Zrotation Yrotation Xrotation
		JOINT LeftUpLeg
		{
			OFFSET 1.363060 -1.794630 0.839290
			CHANNELS 3 Zrotation Yrotation Xrotation
			JOINT LeftLeg
			{
				OFFSET 2.448110 -6.726130 0.000000
				CHANNELS 3 Zrotation Yrotation Xrotation
				JOINT LeftFoot
				{
					OFFSET 2.562200 -7.039590 0.000000
					CHANNELS 3 Zrotation Yrotation Xrotation
					JOINT LeftToeBase
					{
						OFFSET 0.157640 -0.433110 2.322550
						CHANNELS 3 Zrotation Yrotation Xrotation
						End Site
						{
							OFFSET 0.000000 0.000000 0.000000
						}
					}
				}
			}
		}
	}
	JOINT RHipJoint
	{
		OFFSET 0.000000 0.000000 0.000000
		CHANNELS 3 Zrotation Yrotation Xrotation
		JOINT RightUpLeg
		{
			OFFSET -1.305520 -1.794630 0.839290
			CHANNELS 3 Zrotation Yrotation Xrotation
			JOINT RightLeg
			{
				OFFSET -2.542530 -6.985550 0.000000
				CHANNELS 3 Zrotation Yrotation Xrotation
				JOINT RightFoot
				{
					OFFSET -2.568260 -7.056230 0.000000
					CHANNELS 3 Zrotation Yrotation Xrotation
					JOINT RightToeBase
					{
						OFFSET -0.164730 -0.452590 2.363150
						CHANNELS 3 Zrotation Yrotation Xrotation
						End Site
						{
							OFFSET 0.000000 0.000000 0.000000
						}
					}
				}
			}
		}
	}
	JOINT LowerBack
	{
		OFFSET 0.000000 0.000000 0.000000
		CHANNELS 3 Zrotation Yrotation Xrotation
		JOINT Spine
		{
			OFFSET 0.028270 2.035590 -0.193380
			CHANNELS 3 Zrotation Yrotation Xrotation
			JOINT Spine1
			{
				OFFSET 0.056720 2.048850 -0.042750
				CHANNELS 3 Zrotation Yrotation Xrotation
				JOINT Neck
				{
					OFFSET 0.000000 0.000000 0.000000
					CHANNELS 3 Zrotation Yrotation Xrotation
					JOINT Neck1
					{
						OFFSET -0.054170 1.746240 0.172020
						CHANNELS 3 Zrotation Yrotation Xrotation
						JOINT Head
						{
							OFFSET 0.104070 1.761360 -0.123970
							CHANNELS 3 Zrotation Yrotation Xrotation
							End Site
							{
								OFFSET 0.000000 0.000000 0.000000
							}
						}
					}
				}
				JOINT LeftShoulder
				{
					OFFSET 0.000000 0.000000 0.000000
					CHANNELS 3 Zrotation Yrotation Xrotation
					JOINT LeftArm
					{
						OFFSET 3.362410 1.200890 -0.311210
						CHANNELS 3 Zrotation Yrotation Xrotation
						JOINT LeftForeArm
						{
							OFFSET 4.983000 -0.000000 -0.000000
							CHANNELS 3 Zrotation Yrotation Xrotation
							JOINT LeftHand
							{
								OFFSET 3.483560 -0.000000 -0.000000
								CHANNELS 3 Zrotation Yrotation Xrotation
								JOINT LeftFingerBase
								{
									OFFSET 0.000000 0.000000 0.000000
									CHANNELS 3 Zrotation Yrotation Xrotation
									JOINT LeftHandIndex1
									{
										OFFSET 0.715260 -0.000000 -0.000000
										CHANNELS 3 Zrotation Yrotation Xrotation
										End Site
										{
											OFFSET 0.000000 0.000000 0.000000
										}
									}
								}
								JOINT LThumb
								{
									OFFSET 0.000000 0.000000 0.000000
									CHANNELS 3 Zrotation Yrotation Xrotation
									End Site
									{
										OFFSET 0.000000 0.000000 0.000000
									}
								}
							}
						}
					}
				}
				JOINT RightShoulder
				{
					OFFSET 0.000000 0.000000 0.000000
					CHANNELS 3 Zrotation Yrotation Xrotation
					JOINT RightArm
					{
						OFFSET -3.136600 1.374050 -0.404650
						CHANNELS 3 Zrotation Yrotation Xrotation
						JOINT RightForeArm
						{
							OFFSET -5.241900 -0.000000 -0.000000
							CHANNELS 3 Zrotation Yrotation Xrotation
							JOINT RightHand
							{
								OFFSET -3.444170 -0.000000 -0.000000
								CHANNELS 3 Zrotation Yrotation Xrotation
								JOINT RightFingerBase
								{
									OFFSET 0.000000 0.000000 0.000000
									CHANNELS 3 Zrotation Yrotation Xrotation
									JOINT RightHandIndex1
									{
										OFFSET -0.622530 -0.000000 -0.000000
										CHANNELS 3 Zrotation Yrotation Xrotation
										End Site
										{
											OFFSET 0.000000 0.000000 0.000000
										}
									}
								}
								JOINT RThumb
								{
									OFFSET 0.000000 0.000000 0.000000
									CHANNELS 3 Zrotation Yrotation Xrotation
									End Site
									{
										OFFSET 0.000000 0.000000 0.000000
									}
								}
							}
						}
					}
				}
			}
		}
	}
}
MOTION
Frames: 9
Frame Time: 0.008333
9.599971 17.562201 14.368864 169.516202 -0.869757 -142.623055 9.416603 2.199894 -2.011599 -6.636683 -17.615226 -19.486134 1.015440 12.406110 33.415057 0.887909 28.744601 -2.340229 0.886100 -6.000500 -16.785900 -12.964406 -3.006853 -2.009118 -7.516190 3.203477 -85.360396 -9.852439 -24.537775 64.852585 -1.061622 -5.774899 -23.253850 -2.081800 9.034500 -25.903300 3.849795 -3.847902 3.148898 1.600120 -5.088747 -3.670343 -2.047156 -2.757660 6.021935 -6.382688 -5.714069 -3.987809 6.255847 -8.602968 13.096680 -0.630500 -3.726000 2.346500 19.703928 -2.406314 1.453680 -79.283755 -30.997964 40.451771 41.291870 -44.393053 -22.056314 -1.739819 -0.171090 -13.128404 25.054470 -15.273074 -7.598600 -7.125000 0.000000 0.000000 -0.565700 12.914700 0.425000 -12.306800 1.882538 -0.307127 60.131023 15.157891 22.235676 -28.875554 39.635143 -13.621030 0.765971 3.608540 -9.033944 -15.521884 -42.160252 12.154800 7.125000 0.000000 0.000000 38.313400 -73.628100 -26.942600 
9.702625 17.665513 14.277068 169.732300 -0.608268 -142.643574 9.429821 2.155805 -2.087459 -6.785560 -17.242198 -20.744523 1.695142 13.527007 36.649486 0.775311 28.985357 -3.440931 1.138000 -6.774600 -19.049300 -12.994106 -2.960963 -1.999787 -6.760220 3.891882 -84.780556 -9.645493 -24.459149 64.296502 -1.102887 -5.163552 -23.315524 -2.024600 8.917200 -25.536600 3.849682 -3.649638 3.038945 1.602696 -4.839000 -3.598398 -1.961675 -2.645014 6.335427 -6.395561 -5.836184 -4.584414 6.291889 -8.659519 13.374483 -0.646200 -3.735100 2.588000 19.703800 -2.350136 1.408651 -79.703429 -31.023861 40.193079 41.397348 -44.458624 -22.137203 -1.756487 -0.157889 -12.760730 25.307922 -15.439823 -7.766700 -7.125000 0.000000 0.000000 -0.401700 12.692500 0.303600 -12.310601 1.924920 -0.294001 59.999631 15.710152 21.761329 -29.030241 39.733572 -13.733345 0.754431 3.610157 -9.305604 -15.632304 -42.169718 12.241500 7.125000 0.000000 0.000000 38.201300 -73.673600 -26.893100 
9.800562 17.766302 14.184834 169.978413 -0.376851 -142.631484 9.435495 2.103298 -2.151217 -6.875661 -16.982190 -22.008349 2.427109 14.591110 39.817807 0.651655 29.151961 -4.808371 0.846400 -5.868000 -16.401900 -13.027217 -2.918593 -1.974523 -5.964047 4.556944 -84.161902 -9.397570 -24.356536 63.622709 -1.138960 -4.613922 -23.386003 -1.980900 8.826100 -25.252800 3.792808 -3.502976 2.865779 1.641915 -4.656100 -3.592027 -1.740833 -2.563845 6.422914 -6.445848 -5.829305 -4.643024 6.308729 -8.634111 13.473928 -0.642600 -3.715500 2.635500 19.710097 -2.350325 1.350132 -80.207039 -30.671393 40.028141 41.449717 -44.489312 -22.173142 -1.776699 -0.139356 -12.516602 25.567655 -15.718497 -7.998200 -7.125000 0.000000 0.000000 -0.244400 12.335400 0.186500 -12.296545 1.945343 -0.273155 59.950800 16.129692 21.600990 -29.143488 39.802937 -13.809671 0.718659 3.630184 -9.727988 -15.606978 -42.440033 12.275700 7.125000 0.000000 0.000000 38.968300 -73.862300 -27.621100 
9.897403 17.864569 14.093915 170.240196 -0.190043 -142.665747 9.435337 2.041147 -2.200199 -6.937347 -16.869984 -23.272260 3.225917 15.624239 43.028271 0.531609 29.369862 -6.197811 0.534400 -4.684000 -13.009500 -13.069340 -2.879892 -1.931970 -5.053243 5.141682 -83.444225 -9.059200 -24.199957 62.688838 -1.143652 -4.210921 -23.260248 -1.969400 8.802100 -25.178200 3.674303 -3.498868 2.638590 1.744533 -4.663576 -3.648473 -1.320070 -2.574231 6.285059 -6.802515 -5.482878 -3.987732 6.247386 -8.244607 13.382625 -0.561400 -3.534200 2.452800 19.712029 -2.415728 1.294976 -80.730620 -29.773071 39.865836 41.428855 -44.479186 -22.155036 -1.784298 -0.135725 -12.300074 25.715918 -15.744391 -8.061500 -7.125000 0.000000 0.000000 -0.142700 12.287800 0.109100 -12.270288 1.938305 -0.228909 59.958086 16.456350 22.015198 -29.284869 39.903822 -13.894995 0.642398 3.675467 -10.309736 -15.290751 -43.145843 12.164600 7.125000 0.000000 0.000000 41.349500 -74.246900 -29.759800 
9.995231 17.962506 14.001132 170.520201 -0.053757 -142.787042 9.454946 1.983819 -2.255132 -7.031984 -16.798906 -24.438709 4.078673 16.585686 46.230828 0.524511 29.262293 -6.978122 0.632300 -5.088000 -14.159700 -13.106414 -2.832097 -1.908623 -3.964061 5.613389 -82.627983 -8.750097 -24.041597 61.825360 -1.163353 -3.634143 -23.199687 -1.945300 8.751200 -25.020000 3.649201 -3.445346 2.423750 1.780045 -4.610449 -3.636153 -1.191867 -2.553464 6.412956 -6.743813 -5.352019 -3.922557 6.102750 -8.042296 13.562225 -0.621800 -3.421700 2.484600 19.714459 -2.401236 1.275157 -80.959101 -29.218810 39.850554 41.349606 -44.450258 -22.105085 -1.770704 -0.134856 -12.088393 25.511097 -15.650412 -7.939800 -7.125000 0.000000 0.000000 -0.278100 12.429700 0.211700 -12.259684 1.947693 -0.215363 60.304059 16.792924 22.201714 -29.336900 39.943331 -13.914972 0.589532 3.672394 -10.680016 -14.904639 -43.238898 11.870700 7.125000 0.000000 0.000000 42.046200 -74.158200 -30.228300 
10.090208 18.060005 13.906594 170.841333 0.123060 -142.881485 9.486208 1.931669 -2.304604 -7.139756 -16.640083 -25.569356 4.920495 17.422938 49.254500 0.677544 28.744179 -6.602373 1.026500 -6.444900 -18.080800 -13.147120 -2.786894 -1.888083 -2.825971 6.107400 -81.845220 -8.509400 -23.913606 61.151553 -1.203631 -2.888078 -23.263334 -1.871200 8.592600 -24.529000 3.679836 -3.390486 2.077614 1.809322 -4.563681 -3.618606 -1.132474 -2.536188 6.627695 -6.721316 -5.300513 -3.993228 5.963583 -7.911422 13.926384 -0.674300 -3.334000 2.618200 19.704951 -2.369819 1.245030 -81.304860 -28.672081 39.749579 41.126050 -44.335158 -21.925379 -1.762469 -0.129628 -11.608398 25.462089 -15.507875 -7.847400 -7.125000 0.000000 0.000000 -0.301100 12.605400 0.228100 -12.257501 1.967884 -0.206949 60.740776 17.065631 22.496467 -29.426189 40.015995 -13.951440 0.566936 3.624980 -10.608444 -14.387531 -42.802886 11.370200 7.125000 0.000000 0.000000 41.358800 -73.646800 -29.273700 
10.183320 18.155969 13.818966 171.107995 0.384637 -142.957600 9.514070 1.873080 -2.345591 -7.333647 -16.537864 -26.724109 5.793940 18.208538 52.232938 0.864134 27.858882 -6.346060 1.466300 -7.652500 -21.663500 -13.182019 -2.743832 -1.860149 -1.805152 6.600749 -81.105576 -8.239219 -23.768459 60.388552 -1.209230 -2.301308 -23.101823 -1.814100 8.467600 -24.143500 3.590386 -3.316594 1.762550 1.832099 -4.483891 -3.629069 -1.007636 -2.500551 6.706225 -6.859713 -5.202786 -3.775102 5.996013 -7.803264 14.162234 -0.622100 -3.265300 2.650300 19.689010 -2.381637 1.208995 -81.720075 -28.033881 39.719141 40.845326 -44.176287 -21.690403 -1.766192 -0.133031 -11.245248 25.634031 -15.328438 -7.811600 -7.125000 0.000000 0.000000 -0.164000 12.793300 0.123600 -12.260048 1.966981 -0.197067 61.206431 17.177600 22.971713 -29.562702 40.134019 -14.025790 0.564199 3.597646 -10.516673 -14.271337 -42.626772 11.237900 7.125000 0.000000 0.000000 40.980100 -73.467400 -28.836400 
10.275006 18.248642 13.736273 171.397509 0.590883 -143.046347 9.532170 1.808599 -2.376910 -7.464967 -16.529190 -27.928353 6.733015 18.974445 55.253646 1.002193 26.789180 -6.816348 1.770500 -8.370700 -23.845700 -13.215693 -2.698014 -1.824762 -0.755613 7.076497 -80.358055 -7.953575 -23.611445 59.580507 -1.199129 -1.958584 -22.913939 -1.848200 8.542400 -24.374000 3.513197 -3.293919 1.521354 1.883426 -4.462624 -3.688140 -0.781058 -2.496811 6.601145 -7.249041 -5.277703 -3.654925 6.149256 -7.893274 14.830896 -0.484100 -3.269900 2.900600 19.669210 -2.370755 1.140214 -82.247311 -27.043338 39.741944 40.728395 -44.105066 -21.602831 -1.757441 -0.145746 -11.195750 25.544740 -15.157067 -7.690100 -7.125000 0.000000 0.000000 -0.210300 13.011200 0.157600 -12.267455 1.993170 -0.196079 61.589147 17.074347 23.778073 -29.780189 40.317276 -14.155999 0.546417 3.591284 -10.686632 -14.264826 -42.706928 11.240600 7.125000 0.000000 0.000000 41.188900 -73.512500 -29.032900 
10.367240 18.337696 13.651606 171.725467 0.817012 -143.120957 9.545386 1.741171 -2.407202 -7.596657 -16.488276 -29.105750 7.678765 19.665599 58.181708 1.128937 25.682464 -7.331427 2.051600 -8.972800 -25.710400 -13.251473 -2.659420 -1.781104 0.283966 7.616861 -79.631805 -7.689551 -23.467018 58.833662 -1.207655 -1.599361 -22.900372 -1.853600 8.554200 -24.410400 3.416342 -3.279711 1.220893 1.951538 -4.461979 -3.767555 -0.503453 -2.494090 6.404746 -7.601074 -4.915664 -2.968444 5.974980 -7.461743 14.751894 -0.435600 -3.068800 2.713000 19.658772 -2.419147 1.089038 -82.801198 -25.822187 39.763803 40.619359 -44.044562 -21.532421 -1.738460 -0.147662 -10.963697 25.269069 -15.024000 -7.526800 -7.125000 0.000000 0.000000 -0.394100 13.208600 0.293600 -12.263268 1.980065 -0.174214 61.992202 16.775355 24.777272 -30.083481 40.575441 -14.346262 0.497162 3.593203 -10.682883 -13.758082 -43.090326 10.900400 7.125000 0.000000 0.000000 42.811300 -73.579100 -30.334800 
